<?xml version="1.0" encoding="UTF-8"?>
<svg xmlns="http://www.w3.org/2000/svg" xmlns:xlink="http://www.w3.org/1999/xlink" width="500px" height="500px" viewBox="0 0 500 500" version="1.1">
<g id="surface128875">
<path style=" stroke:none;fill-rule:nonzero;fill:rgb(52.156863%,79.607843%,97.254902%);fill-opacity:1;" d="M 432.398438 327.28125 L 404.3125 311.203125 C 403.28125 310.421875 403.28125 310.421875 403.328125 310.257812 L 427.09375 304.070312 C 432.390625 302.695312 436.617188 299.328125 439.171875 295.007812 C 442.398438 289.546875 442.945312 282.554688 439.59375 276.101562 C 435.257812 267.765625 424.976562 264.21875 415.773438 266.617188 L 354.445312 282.601562 C 354.390625 282.59375 354.34375 282.585938 354.296875 282.578125 L 320.648438 263.320312 C 320.617188 263.28125 320.585938 263.242188 320.554688 263.203125 C 320.554688 263.203125 318.171875 258.632812 317.96875 250.046875 C 317.96875 250.023438 317.96875 249.992188 317.96875 249.96875 C 318.5 243.007812 320.617188 236.585938 320.617188 236.585938 C 320.648438 236.546875 320.679688 236.507812 320.710938 236.46875 L 354.21875 217.179688 C 354.273438 217.171875 354.320312 217.164062 354.367188 217.15625 L 415.820312 233.007812 C 424.875 235.34375 434.976562 231.914062 439.359375 223.773438 C 445.632812 212.125 439.070312 198.625 426.960938 195.507812 L 403.179688 189.375 C 403.15625 189.203125 403.15625 189.195312 403.132812 189.023438 L 432.171875 172.304688 C 442.335938 166.453125 447.796875 154.28125 443.6875 143.421875 C 438.359375 129.335938 421.84375 123.953125 409.273438 131.1875 L 379.09375 148.5625 C 378.945312 148.648438 378.757812 148.515625 378.804688 148.34375 L 384.757812 125.96875 C 387.132812 117.054688 383.632812 107.109375 375.351562 102.8125 C 363.507812 96.671875 349.828125 103.109375 346.65625 115.03125 L 330.265625 176.59375 C 330.234375 176.632812 330.203125 176.671875 330.171875 176.710938 L 298.90625 194.710938 C 298.851562 194.71875 298.804688 194.726562 298.757812 194.734375 C 298.757812 194.734375 290.226562 193.96875 283.53125 190.53125 C 277.632812 187.507812 273.890625 180.664062 273.890625 180.664062 C 273.875 180.617188 273.851562 180.578125 273.835938 180.53125 L 273.835938 144.890625 C 273.835938 144.835938 273.859375 144.789062 273.890625 144.75 L 318.8125 100.523438 C 325.429688 94.007812 327.523438 83.695312 322.59375 75.859375 C 315.546875 64.65625 300.390625 63.40625 291.546875 72.125 L 274.164062 89.234375 C 274 89.171875 273.992188 89.164062 273.828125 89.09375 L 273.828125 55.984375 C 273.828125 44.398438 265.90625 33.609375 254.3125 31.617188 C 239.265625 29.039062 226.210938 40.359375 226.210938 54.6875 L 226.210938 89.101562 C 226.046875 89.164062 226.039062 89.171875 225.875 89.234375 L 209.257812 72.882812 C 202.640625 66.367188 192.148438 64.320312 184.203125 69.195312 C 172.84375 76.15625 171.585938 91.039062 180.4375 99.75 L 226.148438 144.75 C 226.1875 144.789062 226.203125 144.835938 226.203125 144.890625 L 226.203125 180.539062 C 226.1875 180.585938 226.164062 180.625 226.148438 180.671875 C 226.148438 180.671875 223.890625 186.367188 216.476562 190.570312 C 209.703125 194.40625 201.046875 194.804688 201.046875 194.804688 C 200.992188 194.796875 200.945312 194.789062 200.898438 194.789062 L 169.679688 176.921875 C 169.648438 176.882812 169.617188 176.84375 169.585938 176.804688 L 153.234375 115.992188 C 151 107.6875 143.820312 101.085938 135.109375 100.734375 C 120.867188 100.164062 111.359375 112.90625 114.6875 125.273438 L 120.976562 148.664062 C 121.023438 148.828125 120.835938 148.96875 120.6875 148.882812 L 91.609375 132.234375 C 81.4375 126.414062 67.976562 127.726562 60.398438 136.59375 C 50.570312 148.09375 53.945312 164.898438 66.53125 172.101562 L 96.75 189.398438 C 96.726562 189.570312 96.726562 189.578125 96.703125 189.75 L 74.1875 195.617188 C 63.703125 198.351562 56.3125 208.539062 58.625 218.96875 C 61.054688 229.90625 72.203125 236.53125 83.085938 233.695312 L 145.585938 217.414062 C 145.640625 217.421875 145.679688 217.429688 145.734375 217.4375 L 179.390625 236.703125 C 179.421875 236.742188 179.453125 236.78125 179.484375 236.820312 C 179.484375 236.820312 183.195312 244.34375 182.929688 249.960938 C 182.929688 249.992188 182.929688 250.023438 182.929688 250.054688 C 182.765625 256.46875 179.429688 263.421875 179.429688 263.421875 C 179.414062 263.46875 179.382812 263.515625 179.335938 263.539062 L 145.820312 282.828125 C 145.765625 282.835938 145.726562 282.84375 145.671875 282.851562 L 84.21875 267 C 75.164062 264.664062 65.070312 268.09375 60.6875 276.234375 C 54.414062 287.882812 60.96875 301.382812 73.085938 304.507812 L 96.867188 310.640625 C 96.890625 310.8125 96.890625 310.820312 96.914062 310.992188 L 67.875 327.710938 C 57.710938 333.5625 52.25 345.734375 56.359375 356.59375 C 61.6875 370.679688 78.203125 376.0625 90.773438 368.828125 L 120.953125 351.453125 C 121.101562 351.367188 121.289062 351.5 121.242188 351.671875 L 115.007812 375.078125 C 113.617188 380.296875 114.507812 385.570312 117.070312 389.890625 C 119.390625 393.796875 123.085938 396.914062 127.695312 398.484375 C 138.804688 402.257812 150.773438 394.78125 153.757812 383.59375 L 169.773438 323.421875 C 169.804688 323.382812 169.835938 323.34375 169.867188 323.304688 L 201.140625 305.304688 C 201.195312 305.296875 201.242188 305.289062 201.289062 305.289062 C 201.289062 305.289062 211.273438 305.75 216.4375 309.445312 C 216.46875 309.46875 216.5 309.476562 216.523438 309.5 C 222.109375 312.921875 226.15625 319.359375 226.15625 319.359375 C 226.171875 319.40625 226.195312 319.445312 226.210938 319.492188 L 226.210938 355.140625 C 226.1875 355.1875 226.171875 355.226562 226.15625 355.28125 L 181.234375 399.507812 C 174.617188 406.023438 172.523438 416.335938 177.453125 424.171875 C 184.5 435.375 199.65625 436.625 208.5 427.90625 L 225.882812 410.796875 C 226.007812 410.671875 226.21875 410.757812 226.21875 410.929688 L 226.21875 444.046875 C 226.21875 455.632812 234.140625 466.421875 245.734375 468.414062 C 260.773438 471 273.835938 459.679688 273.835938 445.34375 L 273.835938 410.929688 C 273.835938 410.757812 274.046875 410.671875 274.171875 410.796875 L 291.554688 427.90625 C 295.429688 431.71875 300.507812 433.625 305.585938 433.625 C 312 433.625 318.421875 430.578125 322.40625 424.484375 C 327.546875 416.609375 325.492188 406.070312 318.765625 399.445312 L 273.90625 355.28125 C 273.882812 355.234375 273.867188 355.195312 273.851562 355.140625 L 273.851562 319.492188 C 273.867188 319.445312 273.890625 319.40625 273.90625 319.359375 C 273.90625 319.359375 278.039062 312.632812 284.429688 309.765625 C 284.460938 309.75 284.492188 309.734375 284.515625 309.710938 C 290.773438 305.953125 299.007812 305.226562 299.007812 305.226562 C 299.0625 305.234375 299.109375 305.242188 299.15625 305.242188 L 330.375 323.109375 C 330.40625 323.148438 330.4375 323.1875 330.46875 323.226562 L 346.820312 384.039062 C 349.054688 392.34375 356.234375 398.945312 364.945312 399.296875 C 379.1875 399.867188 388.695312 387.125 385.367188 374.757812 L 379.078125 351.367188 C 379.03125 351.203125 379.21875 351.0625 379.367188 351.148438 L 409.585938 368.445312 C 422.171875 375.648438 438.679688 370.226562 443.96875 356.125 C 448.023438 345.242188 442.570312 333.101562 432.398438 327.28125 Z M 432.398438 327.28125 "/>
<path style=" stroke:none;fill-rule:nonzero;fill:rgb(43.529412%,77.647059%,94.117647%);fill-opacity:1;" d="M 443.96875 356.09375 C 438.648438 370.234375 422.148438 375.625 409.523438 368.4375 L 379.367188 351.171875 C 379.210938 351.015625 378.96875 351.171875 379.046875 351.328125 L 385.3125 374.765625 C 388.648438 387.109375 379.125 399.84375 364.914062 399.296875 C 356.1875 398.90625 349.039062 392.34375 346.820312 384.0625 L 330.46875 323.203125 C 330.390625 323.203125 330.390625 323.125 330.3125 323.125 L 299.125 305.234375 C 299.046875 305.234375 299.046875 305.234375 298.96875 305.234375 C 298.96875 305.234375 290.71875 305.9375 284.445312 309.6875 C 284.445312 309.6875 284.445312 309.765625 284.367188 309.765625 C 278.015625 312.578125 273.890625 319.296875 273.890625 319.296875 C 273.8125 319.375 273.8125 319.453125 273.8125 319.453125 L 273.8125 355.078125 C 273.8125 355.15625 273.8125 355.234375 273.890625 355.234375 L 318.726562 399.453125 C 325.46875 406.015625 327.539062 416.5625 322.375 424.453125 C 318.40625 430.546875 311.976562 433.59375 305.546875 433.59375 C 300.46875 433.59375 295.390625 431.71875 291.5 427.890625 L 274.117188 410.78125 C 274.039062 410.625 273.796875 410.703125 273.796875 410.859375 L 273.796875 445.3125 C 273.796875 459.609375 260.703125 470.9375 245.703125 468.359375 C 234.117188 466.40625 226.179688 455.625 226.179688 443.984375 L 226.179688 410.859375 C 226.179688 410.703125 225.9375 410.625 225.859375 410.78125 L 208.476562 427.890625 C 199.585938 436.5625 184.429688 435.3125 177.445312 424.140625 C 172.445312 416.328125 174.585938 406.015625 181.171875 399.453125 L 226.085938 355.234375 C 226.164062 355.234375 226.164062 355.15625 226.164062 355.078125 L 226.164062 319.453125 C 226.164062 319.453125 226.164062 319.375 226.085938 319.296875 C 226.085938 319.296875 222.039062 312.890625 216.484375 309.453125 L 216.40625 309.453125 C 211.25 305.703125 201.25 305.234375 201.25 305.234375 C 201.171875 305.3125 201.171875 305.3125 201.09375 305.3125 L 169.828125 323.28125 C 169.828125 323.359375 169.75 323.359375 169.75 323.4375 L 153.71875 383.59375 C 150.703125 394.765625 138.796875 402.265625 127.6875 398.4375 C 123.007812 396.875 119.351562 393.75 117.054688 389.84375 C 114.4375 385.546875 113.5625 380.3125 114.992188 375.078125 L 121.179688 351.640625 C 121.257812 351.484375 121.023438 351.328125 120.9375 351.484375 L 90.703125 368.828125 C 78.960938 375.546875 63.796875 371.328125 57.609375 359.21875 L 441.234375 138.828125 C 442.1875 140.234375 442.984375 141.796875 443.617188 143.4375 C 447.742188 154.296875 442.265625 166.484375 432.109375 172.265625 L 403.0625 188.984375 C 403.140625 189.21875 403.140625 189.21875 403.140625 189.375 L 426.945312 195.46875 C 439.007812 198.59375 445.59375 212.109375 439.328125 223.75 C 434.960938 231.953125 424.804688 235.3125 415.757812 233.046875 L 354.375 217.1875 C 354.296875 217.1875 354.296875 217.1875 354.21875 217.1875 L 320.726562 236.484375 C 320.648438 236.484375 320.648438 236.5625 320.648438 236.5625 C 320.648438 236.5625 318.507812 242.96875 317.953125 249.921875 C 317.953125 250 317.953125 250 317.953125 250 C 318.195312 258.59375 320.570312 263.203125 320.570312 263.203125 L 320.648438 263.28125 L 354.296875 282.578125 C 354.375 282.578125 354.375 282.578125 354.453125 282.578125 L 415.796875 266.640625 C 425 264.21875 435.242188 267.734375 439.601562 276.09375 C 442.9375 282.578125 442.382812 289.53125 439.125 295 C 436.585938 299.296875 432.382812 302.65625 427.0625 304.0625 L 403.335938 310.234375 C 403.257812 310.390625 403.257812 310.390625 404.289062 311.171875 L 432.382812 327.265625 C 442.546875 333.125 448.015625 345.234375 443.96875 356.09375 Z M 443.96875 356.09375 "/>
<path style=" stroke:none;fill-rule:nonzero;fill:rgb(55.294118%,42.352941%,62.352941%);fill-opacity:1;" d="M 210.9375 234.375 C 206.625 234.375 203.125 237.875 203.125 242.1875 L 203.125 257.8125 C 203.125 262.125 206.625 265.625 210.9375 265.625 C 215.25 265.625 218.75 262.125 218.75 257.8125 L 218.75 242.1875 C 218.75 237.875 215.25 234.375 210.9375 234.375 Z M 250 234.375 C 245.6875 234.375 242.1875 237.875 242.1875 242.1875 L 242.1875 257.8125 C 242.1875 262.125 245.6875 265.625 250 265.625 C 254.3125 265.625 257.8125 262.125 257.8125 257.8125 L 257.8125 242.1875 C 257.8125 237.875 254.3125 234.375 250 234.375 Z M 289.0625 234.375 C 284.75 234.375 281.25 237.875 281.25 242.1875 L 281.25 257.8125 C 281.25 262.125 284.75 265.625 289.0625 265.625 C 293.375 265.625 296.875 262.125 296.875 257.8125 L 296.875 242.1875 C 296.875 237.875 293.375 234.375 289.0625 234.375 Z M 289.0625 234.375 "/>
<path style=" stroke:none;fill-rule:nonzero;fill:rgb(100%,97.254902%,97.254902%);fill-opacity:1;" d="M 238.632812 195.3125 L 242.1875 203.125 L 250 207.382812 L 242.1875 210.9375 L 238.632812 218.75 L 234.375 210.9375 L 226.5625 207.382812 L 234.375 203.125 Z M 129.257812 171.875 L 132.8125 179.6875 L 140.625 183.945312 L 132.8125 187.5 L 129.257812 195.3125 L 125 187.5 L 117.1875 183.945312 L 125 179.6875 Z M 136.71875 296.875 L 144.046875 309.898438 L 156.25 316.40625 L 144.046875 323.734375 L 136.71875 335.9375 L 130.210938 323.734375 L 117.1875 316.40625 L 130.210938 309.898438 Z M 266.101562 273.4375 L 270.835938 283.851562 L 281.25 289.539062 L 270.835938 294.273438 L 266.101562 304.6875 L 260.414062 294.273438 L 250 289.539062 L 260.414062 283.851562 Z M 258.289062 101.5625 L 263.023438 111.976562 L 273.4375 117.664062 L 263.023438 122.398438 L 258.289062 132.8125 L 252.601562 122.398438 L 242.1875 117.664062 L 252.601562 111.976562 Z M 258.289062 101.5625 "/>
<path style=" stroke:none;fill-rule:nonzero;fill:rgb(55.294118%,42.352941%,62.352941%);fill-opacity:1;" d="M 249.96875 476.554688 C 248.125 476.5625 246.257812 476.398438 244.40625 476.078125 C 229.578125 473.523438 218.398438 459.734375 218.398438 444.015625 L 218.398438 429.085938 L 213.976562 433.445312 C 207.960938 439.359375 199.679688 442.132812 191.226562 441.226562 C 182.8125 440.25 175.382812 435.539062 170.828125 428.304688 C 164.179688 417.726562 166.25 403.265625 175.742188 393.914062 L 218.390625 351.929688 L 218.390625 321.898438 C 217.015625 320.109375 214.789062 317.585938 212.429688 316.148438 C 212.421875 316.140625 212.40625 316.140625 212.398438 316.132812 C 212.21875 316.023438 212.046875 315.914062 211.875 315.789062 C 210.140625 314.546875 206.132812 313.640625 202.960938 313.257812 L 176.5 328.484375 L 161.296875 385.601562 C 159.21875 393.421875 153.898438 400.109375 146.703125 403.96875 C 139.890625 407.617188 132.242188 408.289062 125.171875 405.890625 C 118.945312 403.765625 113.679688 399.507812 110.34375 393.882812 C 106.585938 387.5625 105.5625 380.171875 107.445312 373.078125 L 108.960938 367.375 L 94.65625 375.609375 C 86.53125 380.296875 76.8125 381.148438 67.960938 377.992188 C 59.226562 374.867188 52.328125 368.078125 49.03125 359.367188 C 43.75 345.398438 50.171875 328.882812 63.960938 320.945312 L 76.8125 313.554688 L 71.117188 312.085938 C 62.828125 309.953125 56.117188 304.257812 52.710938 296.46875 C 49.351562 288.78125 49.75 280.054688 53.796875 272.539062 C 59.664062 261.632812 73.28125 256.125 86.15625 259.445312 L 144.601562 274.53125 L 173.203125 258.070312 C 174.03125 255.882812 175.039062 252.617188 175.109375 249.867188 C 175.203125 247.765625 174.226562 244.554688 173.320312 242.242188 L 144.546875 225.78125 L 85.054688 241.273438 C 77.757812 243.195312 69.890625 242.023438 63.46875 238.09375 C 57.054688 234.171875 52.625 227.992188 51 220.679688 C 47.859375 206.5625 57.375 191.9375 72.210938 188.070312 L 76.648438 186.914062 L 62.632812 178.898438 C 54.492188 174.234375 48.90625 166.304688 47.320312 157.132812 C 45.734375 148.015625 48.335938 138.6875 54.445312 131.539062 C 64.273438 120.039062 81.539062 117.5 95.46875 125.46875 L 108.65625 133.023438 L 107.125 127.328125 C 104.890625 119.039062 106.773438 110.070312 112.15625 103.335938 C 117.726562 96.367188 126.304688 92.609375 135.40625 92.960938 C 147.125 93.4375 157.554688 102.078125 160.765625 113.984375 L 176.289062 171.742188 L 202.65625 186.835938 C 205.304688 186.46875 209.460938 185.59375 212.609375 183.804688 C 215.828125 181.992188 217.570312 179.851562 218.375 178.640625 L 218.375 148.125 L 174.929688 105.359375 C 168.914062 99.429688 166.007812 91.242188 166.960938 82.898438 C 167.921875 74.515625 172.710938 67.109375 180.09375 62.570312 C 190.710938 56.046875 205.28125 58.070312 214.71875 67.351562 L 218.375 70.953125 L 218.375 54.6875 C 218.375 45.523438 222.421875 36.859375 229.484375 30.90625 C 236.664062 24.84375 246.171875 22.28125 255.609375 23.914062 C 270.445312 26.46875 281.625 40.257812 281.625 55.976562 L 281.625 70.90625 L 286.046875 66.546875 C 292.054688 60.632812 300.296875 57.828125 308.78125 58.765625 C 317.195312 59.742188 324.625 64.453125 329.179688 71.6875 C 335.835938 82.265625 333.765625 96.726562 324.257812 106.078125 L 281.617188 148.0625 L 281.617188 178.320312 C 282.742188 179.898438 284.8125 182.390625 287.0625 183.554688 C 290.289062 185.210938 294.484375 186.171875 297.234375 186.632812 L 323.5 171.507812 L 339.078125 113 C 341.21875 104.960938 346.851562 98.398438 354.539062 94.992188 C 362.335938 91.546875 371.226562 91.867188 378.914062 95.851562 C 390.070312 101.648438 395.679688 115.148438 392.28125 127.945312 L 391.03125 132.625 L 405.34375 124.390625 C 413.46875 119.710938 423.195312 118.84375 432.03125 122.007812 C 440.765625 125.132812 447.664062 131.921875 450.960938 140.632812 C 456.242188 154.585938 449.820312 171.101562 436.039062 179.046875 L 423.179688 186.445312 L 428.875 187.914062 C 437.164062 190.046875 443.867188 195.742188 447.273438 203.523438 C 450.632812 211.210938 450.242188 219.9375 446.195312 227.445312 C 440.320312 238.359375 426.71875 243.882812 413.820312 240.554688 L 355.375 225.46875 L 327.242188 241.65625 C 326.703125 243.78125 326.023438 246.929688 325.75 250.1875 C 325.84375 253.679688 326.40625 256.28125 326.867188 257.867188 L 355.445312 274.21875 L 413.765625 259.023438 C 426.851562 255.601562 440.648438 261.25 446.484375 272.476562 C 450.875 280.945312 450.640625 290.84375 445.851562 298.960938 C 442.132812 305.257812 436.15625 309.75 429.015625 311.609375 L 423.34375 313.078125 L 436.234375 320.46875 C 450.023438 328.359375 456.46875 344.851562 451.21875 358.835938 C 447.945312 367.546875 441.0625 374.34375 432.335938 377.5 C 423.515625 380.695312 413.765625 379.835938 405.640625 375.1875 L 391.3125 366.984375 L 392.84375 372.679688 C 395.070312 380.96875 393.1875 389.9375 387.804688 396.671875 C 382.242188 403.632812 373.929688 407.445312 364.554688 407.046875 C 352.828125 406.570312 342.40625 397.929688 339.195312 386.023438 L 323.671875 328.265625 L 297.46875 313.265625 C 294.96875 313.726562 291.234375 314.679688 288.460938 316.359375 C 288.1875 316.523438 287.828125 316.71875 287.546875 316.84375 C 285.09375 317.953125 282.882812 320.265625 281.585938 321.882812 L 281.585938 351.898438 L 324.164062 393.820312 C 333.859375 403.359375 335.835938 418.03125 328.882812 428.703125 C 323.679688 436.648438 314.953125 441.382812 305.515625 441.382812 C 298.148438 441.382812 291.21875 438.554688 286.007812 433.40625 L 281.59375 429.054688 L 281.59375 445.3125 C 281.59375 454.476562 277.539062 463.140625 270.484375 469.09375 C 264.765625 473.953125 257.484375 476.554688 249.96875 476.554688 Z M 226.078125 402.914062 C 227.125 402.914062 228.164062 403.109375 229.132812 403.523438 C 232.023438 404.742188 234.015625 407.757812 234.015625 410.890625 L 234.015625 444.007812 C 234.015625 452.234375 239.617188 459.398438 247.046875 460.679688 C 251.976562 461.507812 256.75 460.265625 260.453125 457.140625 C 263.984375 454.164062 266.007812 449.851562 266.007812 445.304688 L 266.007812 410.890625 C 266.007812 407.773438 267.976562 404.78125 270.835938 403.546875 C 273.6875 402.304688 277.234375 402.9375 279.507812 405.0625 L 297.007812 422.296875 C 302.257812 427.453125 311.71875 426.476562 315.835938 420.171875 C 318.695312 415.78125 317.59375 409.257812 313.25 404.984375 L 268.390625 360.820312 C 267.507812 359.953125 266.851562 358.890625 266.460938 357.726562 C 266.195312 356.921875 266 355.960938 266 355.125 L 266 319.476562 C 266 318.640625 266.140625 317.804688 266.40625 317.007812 C 266.523438 316.65625 266.710938 316.1875 266.882812 315.859375 C 267.75 314.390625 272.695312 306.617188 280.804688 302.8125 C 280.867188 302.78125 280.921875 302.75 280.976562 302.71875 C 288.023438 298.453125 297.257812 297.53125 298.28125 297.4375 C 298.789062 297.382812 299.3125 297.390625 299.820312 297.453125 C 300.9375 297.554688 302.023438 297.898438 303 298.453125 L 334.21875 316.328125 C 334.820312 316.671875 335.367188 317.101562 335.859375 317.585938 C 336.140625 317.867188 336.460938 318.242188 336.695312 318.5625 C 337.265625 319.351562 337.71875 320.265625 337.96875 321.195312 L 354.320312 382.007812 C 355.773438 387.382812 360.25 391.289062 365.21875 391.484375 C 370.9375 391.695312 374.203125 388.75 375.632812 386.960938 C 377.960938 384.054688 378.742188 380.34375 377.78125 376.78125 L 371.484375 353.390625 C 370.664062 350.3125 371.851562 346.835938 374.398438 344.921875 C 376.84375 343.078125 380.390625 342.804688 383.078125 344.304688 L 413.429688 361.664062 C 417.578125 364.046875 422.546875 364.476562 427.0625 362.835938 C 431.53125 361.226562 434.929688 357.867188 436.609375 353.382812 C 439.195312 346.5 435.710938 338.203125 428.5 334.070312 C 428.492188 334.070312 428.492188 334.070312 428.492188 334.070312 L 400.40625 317.992188 C 400.125 317.828125 399.84375 317.640625 399.585938 317.445312 C 398.289062 316.460938 394.335938 313.476562 395.773438 308.210938 C 396.515625 305.507812 398.632812 303.40625 401.34375 302.703125 L 425.101562 296.515625 C 428.210938 295.703125 430.8125 293.757812 432.421875 291.046875 C 434.492188 287.546875 434.570312 283.414062 432.640625 279.710938 C 430.1875 274.984375 423.765625 272.601562 417.726562 274.179688 L 356.40625 290.15625 C 355.40625 290.421875 354.359375 290.484375 353.328125 290.328125 C 352.351562 290.179688 351.265625 289.84375 350.40625 289.351562 L 316.75 270.09375 C 315.90625 269.609375 315.148438 268.953125 314.53125 268.195312 C 314.390625 268.023438 314.164062 267.710938 314.046875 267.523438 C 313.890625 267.296875 313.75 267.046875 313.617188 266.804688 C 313.085938 265.765625 310.382812 260.125 310.15625 250.21875 C 310.148438 249.9375 310.164062 249.65625 310.1875 249.375 L 310.179688 249.375 C 310.765625 241.554688 313.085938 234.4375 313.1875 234.140625 C 313.46875 233.28125 313.90625 232.476562 314.460938 231.765625 C 315.09375 230.929688 315.898438 230.210938 316.804688 229.679688 L 350.3125 210.398438 C 351.171875 209.914062 352.117188 209.585938 353.101562 209.4375 C 354.132812 209.296875 355.3125 209.328125 356.304688 209.585938 L 417.765625 225.4375 C 423.695312 226.992188 430 224.65625 432.46875 220.0625 C 434.257812 216.75 434.4375 213.109375 432.984375 209.804688 C 431.515625 206.453125 428.601562 203.992188 425 203.070312 L 401.21875 196.9375 C 398.140625 196.140625 395.859375 193.5625 395.429688 190.421875 C 395 187.28125 396.46875 183.828125 399.21875 182.242188 L 428.265625 165.523438 C 435.484375 161.367188 438.96875 153.046875 436.367188 146.171875 C 434.671875 141.695312 431.273438 138.335938 426.789062 136.734375 C 422.273438 135.117188 417.304688 135.5625 413.164062 137.9375 L 382.984375 155.3125 C 380.21875 156.90625 376.53125 156.648438 374.03125 154.664062 C 371.570312 152.726562 370.4375 149.296875 371.265625 146.28125 L 377.210938 123.953125 C 378.757812 118.164062 376.460938 112.179688 371.757812 109.742188 C 368.242188 107.921875 364.375 107.765625 360.890625 109.296875 C 357.5625 110.765625 355.132812 113.59375 354.21875 117.03125 L 337.820312 178.601562 C 337.601562 179.421875 337.242188 180.210938 336.765625 180.921875 C 336.09375 181.921875 335.125 182.882812 334.078125 183.484375 L 302.804688 201.484375 C 301.945312 201.96875 301 202.296875 300.015625 202.445312 C 299.414062 202.53125 298.640625 202.546875 298.0625 202.507812 C 297.03125 202.414062 287.789062 201.492188 279.960938 197.46875 C 272.15625 193.46875 267.53125 185.320312 267.039062 184.40625 C 266.8125 183.992188 266.570312 183.4375 266.429688 182.992188 C 266.164062 182.1875 266.023438 181.359375 266.023438 180.523438 L 266.023438 144.882812 C 266.023438 142.773438 266.914062 140.671875 268.414062 139.1875 L 313.335938 94.960938 C 317.648438 90.71875 318.757812 84.4375 315.984375 80.023438 C 313.9375 76.773438 310.75 74.734375 307.015625 74.3125 C 303.273438 73.859375 299.671875 75.117188 297.046875 77.703125 L 279.65625 94.820312 C 277.429688 97 274.109375 97.640625 271.21875 96.484375 C 268.28125 95.28125 266.03125 92.289062 266.03125 89.117188 L 266.03125 55.984375 C 266.03125 47.757812 260.429688 40.59375 253 39.3125 C 248.078125 38.5 243.296875 39.726562 239.59375 42.851562 C 236.046875 45.828125 234.023438 50.140625 234.023438 54.6875 L 234.023438 89.101562 C 234.023438 92.34375 232.023438 95.25 228.992188 96.40625 C 226.132812 97.5 222.570312 96.953125 220.390625 94.8125 L 203.78125 78.453125 C 199.460938 74.203125 192.796875 73.078125 188.289062 75.851562 C 184.984375 77.882812 182.929688 81 182.515625 84.632812 C 182.109375 88.171875 183.351562 91.648438 185.921875 94.179688 L 231.640625 139.1875 C 233.140625 140.671875 234.03125 142.78125 234.03125 144.882812 L 234.03125 180.53125 C 234.03125 181.5625 233.828125 182.585938 233.429688 183.539062 C 233.09375 184.390625 229.875 191.960938 220.34375 197.359375 C 212.1875 201.984375 202.5 202.546875 201.421875 202.601562 C 200.9375 202.640625 200.445312 202.601562 199.953125 202.53125 C 198.976562 202.382812 197.882812 202.046875 197.023438 201.554688 L 165.796875 183.6875 C 164.945312 183.203125 164.1875 182.546875 163.578125 181.789062 C 162.90625 180.945312 162.328125 179.859375 162.046875 178.820312 L 145.695312 118.007812 C 144.25 112.632812 139.765625 108.726562 134.796875 108.53125 C 128.929688 108.382812 125.8125 111.273438 124.382812 113.046875 C 122.054688 115.960938 121.273438 119.671875 122.234375 123.226562 L 128.523438 146.625 C 129.335938 149.648438 128.203125 153.046875 125.75 154.984375 C 123.257812 156.945312 119.601562 157.21875 116.851562 155.671875 L 87.726562 139 C 80.398438 134.8125 71.203125 135.945312 66.335938 141.65625 C 63.210938 145.3125 61.929688 149.851562 62.726562 154.429688 C 63.523438 159.007812 66.320312 162.96875 70.414062 165.3125 L 100.640625 182.617188 C 103.40625 184.203125 104.929688 187.304688 104.5 190.453125 C 104.070312 193.59375 101.742188 196.507812 98.679688 197.3125 L 76.164062 203.179688 C 69.367188 204.953125 64.929688 211.273438 66.265625 217.28125 C 66.960938 220.40625 68.867188 223.0625 71.632812 224.75 C 74.492188 226.5 77.867188 227 81.132812 226.140625 L 143.632812 209.859375 C 144.632812 209.59375 145.671875 209.53125 146.710938 209.6875 C 147.6875 209.835938 148.78125 210.171875 149.632812 210.664062 L 183.289062 229.921875 C 184.34375 230.523438 185.242188 231.367188 185.90625 232.367188 C 186.09375 232.648438 186.351562 233.0625 186.5 233.367188 C 187.265625 234.921875 191.085938 243.070312 190.742188 250.34375 C 190.539062 258.125 186.890625 265.9375 186.484375 266.804688 L 186.476562 266.804688 C 185.84375 268.101562 184.867188 269.25 183.679688 270.046875 L 149.734375 289.609375 C 148.875 290.09375 147.921875 290.421875 146.945312 290.570312 C 145.921875 290.710938 144.734375 290.679688 143.734375 290.421875 L 82.273438 274.570312 C 76.375 273.03125 70.039062 275.351562 67.570312 279.9375 C 65.78125 283.257812 65.601562 286.898438 67.046875 290.195312 C 68.515625 293.554688 71.429688 296.007812 75.039062 296.9375 L 98.820312 303.070312 C 101.828125 303.851562 104.09375 306.34375 104.585938 309.414062 C 105.09375 312.617188 103.625 316.148438 100.820312 317.757812 L 71.78125 334.476562 C 64.554688 338.632812 61.070312 346.953125 63.671875 353.835938 C 65.367188 358.3125 68.765625 361.671875 73.25 363.273438 C 77.773438 364.882812 82.734375 364.445312 86.882812 362.0625 L 117.054688 344.695312 C 119.742188 343.125 123.320312 343.34375 125.820312 345.1875 C 128.359375 347.070312 129.585938 350.507812 128.820312 353.5625 L 122.554688 377.09375 C 121.757812 380.09375 122.195312 383.21875 123.78125 385.898438 C 125.226562 388.328125 127.507812 390.171875 130.21875 391.09375 C 133.132812 392.070312 136.382812 391.757812 139.335938 390.1875 C 142.679688 388.398438 145.242188 385.179688 146.203125 381.585938 L 162.21875 321.414062 C 162.476562 320.445312 162.914062 319.539062 163.523438 318.734375 C 164.15625 317.890625 165.046875 317.054688 165.960938 316.523438 L 197.234375 298.523438 C 198.09375 298.039062 199.046875 297.710938 200.023438 297.5625 C 200.507812 297.5 201.171875 297.46875 201.648438 297.46875 C 203.679688 297.5625 214.015625 298.273438 220.71875 302.890625 C 227.59375 307.15625 232.257812 314.367188 232.765625 315.171875 C 233 315.546875 233.203125 315.929688 233.367188 316.328125 C 233.765625 317.28125 234.023438 318.4375 234.023438 319.460938 L 234.023438 355.109375 C 234.023438 356.140625 233.820312 357.164062 233.421875 358.117188 C 233.023438 359.078125 232.375 360.078125 231.632812 360.8125 L 186.710938 405.039062 C 182.40625 409.28125 181.289062 415.570312 184.0625 419.976562 C 186.109375 423.226562 189.289062 425.265625 193.03125 425.6875 C 196.742188 426.140625 200.382812 424.875 203.007812 422.296875 L 220.390625 405.179688 C 221.890625 403.710938 223.984375 402.914062 226.078125 402.914062 Z M 226.078125 402.914062 "/>
</g>
</svg>
